PathFileType	4	(X/Y/Z)	OpenSim_Sub09_EMGStiffKnee_Magnet.trc
DataRate	CameraRate	NumFrames	NumMarkers	Units	OrigDataRate	OrigDataStartFrame	OrigNumFrames
100	100	20	8	m	100	1	7584
Frame#	Time	torso_imu_offset_imu	pelvis_imu_offset_imu	tibia_r_imu_offset_imu	femur_r_imu_offset_imu	tibia_l_imu_offset_imu	femur_l_imu_offset_imu	toes_r_imu_offset_imu	toes_l_imu_offset_imu
				X1	Y1	Z1	X2	Y2	Z2	X3	Y3	Z3	X4	Y4	Z4	X5	Y5	Z5	X6	Y6	Z6	X7	Y7	Z7	X8		Y8	Z8	

1	0	-0.93011843	-0.22014388	0.05335936	-0.73983589	0.27694970	-0.52930239	-0.56952884	-0.67620349	-0.17378969	-0.73016652	-0.43601859	0.02246976	-0.66306572	0.48308042	0.13769097	-0.76065933	0.26992706	0.27037006	-0.64666994	-0.23344204	-0.42516817	-0.72258671	-0.16113939	-0.37230235
2	0.01000000	-0.93076958	-0.21166778	0.05550597	-0.73762916	0.27601198	-0.52939924	-0.56599653	-0.67830652	-0.17149556	-0.72810997	-0.43722801	0.02296329	-0.65920378	0.48032154	0.13751525	-0.75860167	0.26976030	0.26629856	-0.65098629	-0.23441707	-0.42860236	-0.72226237	-0.16091133	-0.38120679
3	0.02000000	-0.92419364	-0.21738756	0.05201728	-0.73803499	0.28023682	-0.52728130	-0.57856350	-0.67685320	-0.17307147	-0.73149841	-0.44197003	0.02514691	-0.66116543	0.48457046	0.13983931	-0.75605821	0.26776049	0.26580346	-0.65851600	-0.23708255	-0.43171094	-0.72461604	-0.15894916	-0.37288610
4	0.03000000	-0.92738173	-0.21379625	0.04891413	-0.73346309	0.28081410	-0.52699318	-0.57594129	-0.67179004	-0.17818895	-0.73665730	-0.43629759	0.02537350	-0.65681534	0.48313998	0.13361709	-0.75991255	0.26758310	0.26588411	-0.65256982	-0.23527336	-0.42698278	-0.72515451	-0.15835697	-0.38067298
5	0.04000000	-0.93441442	-0.21370821	0.05320902	-0.73754093	0.28057274	-0.52734819	-0.57113796	-0.68026681	-0.17378822	-0.73083805	-0.43568757	0.02295640	-0.66264115	0.48017722	0.13296309	-0.76304817	0.26719944	0.27021803	-0.65222719	-0.23488083	-0.43539439	-0.72050564	-0.16297510	-0.37764302
6	0.05000000	-0.93092204	-0.21118764	0.05143743	-0.73569743	0.27890227	-0.52443386	-0.56872853	-0.67259170	-0.17353389	-0.72976491	-0.43570424	0.02341278	-0.66562978	0.48669052	0.13704444	-0.75633791	0.26972665	0.27045497	-0.64810167	-0.23470729	-0.42765064	-0.72027350	-0.15921811	-0.37469911
7	0.06000000	-0.92814277	-0.21764154	0.04918396	-0.73918392	0.27619574	-0.52948919	-0.57265926	-0.67772350	-0.17742711	-0.73448399	-0.43766520	0.01610525	-0.66603962	0.48347077	0.13983393	-0.76017806	0.26770094	0.27260733	-0.65159873	-0.23707059	-0.43294427	-0.71809337	-0.15795276	-0.37662015
8	0.07000000	-0.92780453	-0.21183060	0.05284291	-0.74213552	0.28046242	-0.52047031	-0.57311319	-0.67889447	-0.18072027	-0.73001258	-0.43608163	0.02450749	-0.65871188	0.47804840	0.13812839	-0.75850758	0.26945439	0.27242811	-0.65419664	-0.23503292	-0.42954837	-0.71980237	-0.16496473	-0.37922446
9	0.08000000	-0.93428246	-0.21503988	0.05377347	-0.73780703	0.27652618	-0.52444591	-0.57287184	-0.67446821	-0.17141887	-0.73855205	-0.43534592	0.02137071	-0.66549862	0.48460815	0.13335790	-0.75851083	0.27164056	0.27889147	-0.65429706	-0.23888064	-0.43116428	-0.72010964	-0.16320673	-0.37686056
10	0.09000000	-0.93085333	-0.21756263	0.04933330	-0.73954288	0.28016932	-0.52016297	-0.57338743	-0.67606570	-0.18178254	-0.73064769	-0.44173248	0.01618182	-0.65954152	0.48074400	0.13312134	-0.75405333	0.27193815	0.28177541	-0.65040675	-0.23531591	-0.42965544	-0.72232470	-0.16523673	-0.37956832
11	0.10000000	-0.92616302	-0.21842582	0.04933951	-0.74214793	0.27897168	-0.52455793	-0.56693873	-0.67629824	-0.18046885	-0.73218199	-0.43653824	0.02236673	-0.66062273	0.48426173	0.13506709	-0.75615076	0.27354259	0.28151042	-0.65156514	-0.23472024	-0.42529802	-0.72214568	-0.16142570	-0.37026567
12	0.11000000	-0.92634012	-0.20914130	0.04852927	-0.73772415	0.27631711	-0.52001759	-0.57021388	-0.67796101	-0.18223008	-0.73049842	-0.43335896	0.02329525	-0.66363428	0.48555623	0.13714209	-0.75042539	0.27663315	0.28581267	-0.65636704	-0.23915134	-0.42656149	-0.72694419	-0.15862516	-0.37864970
13	0.12000000	-0.92541882	-0.22098406	0.05371894	-0.73968438	0.27848307	-0.52680767	-0.57292932	-0.68276744	-0.18033205	-0.73407696	-0.43753900	0.01875859	-0.66108294	0.47627977	0.14010908	-0.74893377	0.27007766	0.28620036	-0.65032585	-0.23710801	-0.43346839	-0.72284112	-0.16074536	-0.37484554
14	0.13000000	-0.93212533	-0.22001443	0.04757128	-0.73749950	0.27661757	-0.52239442	-0.56914764	-0.67653087	-0.18219265	-0.73283480	-0.43601631	0.01609330	-0.66110907	0.48224605	0.13789417	-0.75604749	0.27348403	0.28617951	-0.65176988	-0.23911982	-0.42550522	-0.72231928	-0.16081067	-0.38113593
15	0.14000000	-0.92836093	-0.22182674	0.04906085	-0.74173027	0.27616406	-0.52677529	-0.56857545	-0.68017909	-0.18478364	-0.73010390	-0.43573121	0.01807214	-0.66095744	0.48038503	0.13932686	-0.74994076	0.27421415	0.28587961	-0.65388365	-0.23505712	-0.42884769	-0.72075679	-0.16294538	-0.37514340
16	0.15000000	-0.92973519	-0.21828110	0.04739083	-0.73998066	0.27995647	-0.52049734	-0.56868038	-0.67674255	-0.18029352	-0.73262078	-0.43580679	0.01856741	-0.66363840	0.48674442	0.14604473	-0.75178854	0.27595280	0.29030329	-0.65840518	-0.24093005	-0.42737139	-0.71547935	-0.16282832	-0.37717567
17	0.16000000	-0.93244270	-0.21559558	0.04266135	-0.74247864	0.28463090	-0.52238496	-0.57249259	-0.67597776	-0.18431265	-0.72800348	-0.43578761	0.01414019	-0.65931021	0.48304735	0.14504156	-0.74818479	0.27886041	0.28863239	-0.65047285	-0.23736114	-0.42915594	-0.72192805	-0.16329307	-0.36997743
18	0.17000000	-0.92860895	-0.21731597	0.04428512	-0.73551024	0.28098724	-0.52245610	-0.57524954	-0.67999592	-0.18500712	-0.73797680	-0.43578876	0.01146280	-0.65889359	0.48449377	0.13743859	-0.74487888	0.27226491	0.28806037	-0.65173759	-0.23892024	-0.42718349	-0.72060527	-0.15880979	-0.38265949
19	0.18000000	-0.92522617	-0.22188921	0.04713110	-0.74563929	0.27843286	-0.52287800	-0.56899055	-0.68104737	-0.18179665	-0.73317706	-0.43580334	0.01338247	-0.65873605	0.48524235	0.14397391	-0.74963091	0.27587184	0.29231229	-0.65226616	-0.23702872	-0.43120307	-0.71985165	-0.15831013	-0.38218955
20	0.19000000	-0.93450288	-0.21813041	0.04488116	-0.74249785	0.27812441	-0.51563683	-0.57061861	-0.67227901	-0.19332741	-0.73194150	-0.43574389	0.01590339	-0.66137981	0.48050939	0.14011316	-0.74577140	0.27822269	0.29498340	-0.65179556	-0.24094785	-0.42926938	-0.72466214	-0.15881421	-0.37509273
